. 
  
http://www.torrenting.com/        :     Greatest Movie Tracker on The Net!!!
 
http://www.Torrenting.com          :     Once & For all ;)


               www . Torrenting . Com 

(((((((((((((= Enjoy No RAR releases =))))))))))))))))))))


...................................NFO:....................................

.[img]http://img233.imageshack.us/img233/3720/justgowithit.jpg[/img]

[color=blue][size=5][b]Just.Go.With.It.2011.R5.NEW-AUDIO.XVID.AC3-5.1.HQ.Hive-CM8[/b][/size][/color]


[b]Thx Hive

CM8 Doing It Right The First Time :D

whats the fuss
theres no rush
want the best 
forget the rest
you should wait
for Hive-CM8  :D

Sources:
Video: Russian DVD-9
Pritvoris.moej.zhenoj.2011.D.DVD.ELEKTRI4KA
Audio: New Sweet Line Audio from peeraccess (thx guys)

Encode:
added brightness,sharpness,rgb,denoise
I synced the new perfect line lipsync and entered it back into the russian 5.1 track.

Video: 720x384 @bitrate 1800 2pass
Audio: English AC3 5.1 @448
Sample: yes included[/b]


[url]http://www.imdb.com/title/tt1564367/[/url]

General
Complete name                    : Just.Go.With.It.2011.R5.NEW-AUDIO.XVID.AC3-5.1.HQ.Hive-CM8.avi
Format                           : AVI
Format/Info                      : Audio Video Interleave
File size                        : 1.76 GiB
Duration                         : 1h 51mn
Overall bit rate                 : 2 253 Kbps
Writing application              : Nandub v1.0rc2
Writing library                  : Nandub build 1853/release

Video
ID                               : 0
Format                           : MPEG-4 Visual
Format profile                   : Advanced Simple@L5
Format settings, BVOP            : Yes
Format settings, QPel            : Yes
Format settings, GMC             : No warppoints
Format settings, Matrix          : Default (H.263)
Muxing mode                      : Packed bitstream
Codec ID                         : XVID
Codec ID/Hint                    : XviD
Duration                         : 1h 51mn
Bit rate                         : 1 795 Kbps
Width                            : 720 pixels
Height                           : 384 pixels
Display aspect ratio             : 1.875
Frame rate                       : 25.000 fps
Color space                      : YUV
Chroma subsampling               : 4:2:0
Bit depth                        : 8 bits
Scan type                        : Progressive
Bits/(Pixel*Frame)               : 0.260
Stream size                      : 1.40 GiB (80%)
Writing library                  : XviD 1.2.1 (UTC 2008-12-04)

Audio
ID                               : 1
Format                           : AC-3
Format/Info                      : Audio Coding 3
Mode extension                   : CM (complete main)
Codec ID                         : 2000
Duration                         : 1h 51mn
Bit rate mode                    : Constant
Bit rate                         : 448 Kbps
Channel(s)                       : 6 channels
Channel positions                : Front: L C R, Side: L R, LFE
Sampling rate                    : 48.0 KHz
Bit depth                        : 16 bits
Stream size                      : 358 MiB (20%)
Alignment                        : Split accross interleaves
Interleave, duration             : 40 ms (1.00 video frame)
Interleave, preload duration     : 500 ms



Adam Sandler	 ... 	Danny
Jennifer Aniston ... 	Katherine
Nicole Kidman	... 	Devlin Adams
Nick Swardson	... 	Eddie
Brooklyn Decker	... 	Palmer
Bailee Madison	... 	Maggie


On a weekend trip to Hawaii, a plastic surgeon convinces his loyal 
assistant to pose as his soon-to-be-divorced wife in order to cover 
up a careless lie he told to his much-younger girlfriend. 

 
[img]http://img825.imageshack.us/img825/5179/43718350.png[/img]
[img]http://img222.imageshack.us/img222/3548/jujuhs.png[/img]
[img]http://img43.imageshack.us/img43/4168/jujujul.png[/img]
[img]http://img251.imageshack.us/img251/8620/jujujuju.png[/img]
[img]http://img820.imageshack.us/img820/4166/jujujujuju.png[/img]
[img]http://img688.imageshack.us/img688/4712/jujujujujujud.png[/img]
[img]http://img508.imageshack.us/img508/278/jujujujujujuju.png[/img]
[img]http://img189.imageshack.us/img189/7958/jujujujujujujuju.png[/img]
[img]http://img84.imageshack.us/img84/1974/jujujujujujujujuju.png[/img]





Greetz

ViSiON,LUSi,SANTi,MAGNET,THC,T0XiCiNK,LKRG,IMAGiNE,WBZ,FLAWL3SS,NOVA
Vik,OneTwo,joey,Rapeseed,D2U,SAFC,goldadvance,MEMORY100,KaN1vE,Unevano,Pinnz,Wayne,Mr Hive
and all P2P groups 
Great Work Guys :D

CM8@hushmail.com